<svg xmlns="http://www.w3.org/2000/svg" viewBox="0 0 1280 800" role="img" aria-labelledby="t d"><title id="t">Perspective type and rays share one vanishing point</title><desc id="d">A type band narrowing with distance and its letters scaled to match, over rays that all converge on the same vanishing point beyond the right edge</desc><rect width="1280" height="800" fill="#283128"/><g font-family="Segoe UI,Microsoft YaHei,sans-serif"><g stroke="#f9f7ef" stroke-width="8" fill="none"><path d="M1600 400L0 40"/><path d="M1600 400L0 100"/><path d="M1600 400L0 160"/><path d="M1600 400L0 220"/><path d="M1600 400L0 280"/><path d="M1600 400L0 340"/><path d="M1600 400L0 460"/><path d="M1600 400L0 520"/><path d="M1600 400L0 580"/><path d="M1600 400L0 640"/><path d="M1600 400L0 700"/><path d="M1600 400L0 760"/></g><path d="M0 290L1280 360L1280 440L0 510Z" fill="#61724f"/><path d="M0 400H1280" stroke="#dc7858" stroke-width="10" stroke-dasharray="36 28" fill="none"/><text x="30" y="470" font-size="190" font-weight="700" fill="#f9f7ef">BLEACH</text><text x="1176" y="422" font-size="60" font-weight="700" fill="#f9f7ef">99</text></g></svg>